# xmcd CD database file
#
# Track frame offsets:
#	150
#	19610
#	37570
#	54770
#	69767
#	84025
#	98427
#	118552
#	133150
#	147215
#	163900
#	194075
#
# Disc length: 4440 seconds
#
# Revision: 0
# Processed by: cddbd v1.5.1PL0 Copyright (c) Steve Scherf et al.
# Submitted via: CDex 1.51
#
DISCID=8b11560c
DTITLE=Various Artist - K-POP100% 5
DYEAR=2004
DGENRE=Pop
TTITLE0=JUST ONE MOMENT - S
TTITLE1=MIRAGE - HAO
TTITLE2=HUG - 東方神起
TTITLE3=MILKY WAY - BoA
TTITLE4=CHOICE - BLACK BEAT
TTITLE5=OH HOLY NIGHT (Feat. BoA) - 東方神起
TTITLE6=天国の別れ (Feat. RYU) - TRI-BE
TTITLE7=WHAT IS LOVE - DANA
TTITLE8=WHITE - SHOO
TTITLE9=I SWEAR - S
TTITLE10=WINTER STORY - KANGTA, MOON HEE JUN, JIYEON (Isak N Jiyeon)
TTITLE11=DATA
EXTD=YEAR: 2004
EXTT0=
EXTT1=
EXTT2=
EXTT3=
EXTT4=
EXTT5=
EXTT6=
EXTT7=
EXTT8=
EXTT9=
EXTT10=
EXTT11=
PLAYORDER=
